<svg xmlns="http://www.w3.org/2000/svg" version="1.1" xmlns:xlink="http://www.w3.org/1999/xlink" xmlns:svgjs="http://svgjs.dev/svgjs" width="1440" height="560" preserveAspectRatio="none" viewBox="0 0 1440 560"><g mask="url(&quot;#SvgjsMask1020&quot;)" fill="none"><rect width="1440" height="560" x="0" y="0" fill="#0e2a47"></rect><path d="M425.42,432.835C470.86,433.388,509.315,403.086,532.31,363.89C555.623,324.153,564.533,275.057,541.338,235.251C518.275,195.672,471.219,179.538,425.42,180.451C381.359,181.329,338.958,201.372,317.236,239.716C295.794,277.565,301.684,323.389,322.944,361.34C344.761,400.286,380.782,432.291,425.42,432.835" fill="rgba(28, 83, 142, 0.4)" class="triangle-float3"></path><path d="M266.02 11.37 a113.53 113.53 0 1 0 227.06 0 a113.53 113.53 0 1 0 -227.06 0z" fill="rgba(28, 83, 142, 0.4)" class="triangle-float3"></path><path d="M164.889,16.206C181.263,16.082,198.524,10.755,206.158,-3.73C213.441,-17.55,206.063,-33.293,198.039,-46.697C190.311,-59.608,179.909,-71.771,164.889,-72.674C148.42,-73.664,132.615,-65.236,124.034,-51.144C115.101,-36.475,113.61,-17.779,122.518,-3.094C131.145,11.128,148.255,16.332,164.889,16.206" fill="rgba(28, 83, 142, 0.4)" class="triangle-float2"></path><path d="M1381.443,603.498C1406.279,603.239,1432.789,599.889,1446.593,579.241C1461.79,556.509,1462.243,526.548,1448.805,502.734C1435.143,478.523,1409.241,464.103,1381.443,463.783C1353.063,463.456,1325.543,476.58,1311.338,501.151C1297.12,525.745,1297.841,557.188,1313.895,580.625C1328.293,601.646,1355.965,603.764,1381.443,603.498" fill="rgba(28, 83, 142, 0.4)" class="triangle-float1"></path><path d="M175.709,547.051C209.262,548.547,236.869,524.412,254.559,495.862C273.459,465.359,286.016,428.069,269.014,396.468C251.317,363.576,212.998,347.148,175.709,349.308C141.746,351.275,114.199,375.65,99.418,406.291C86.456,433.161,93.946,463.107,108.162,489.335C123.287,517.242,143.998,545.637,175.709,547.051" fill="rgba(28, 83, 142, 0.4)" class="triangle-float2"></path><path d="M679.97 176.17 a143.37 143.37 0 1 0 286.74 0 a143.37 143.37 0 1 0 -286.74 0z" fill="rgba(28, 83, 142, 0.4)" class="triangle-float2"></path><path d="M660.149,259.278C690.769,257.72,716.765,239.301,732.357,212.902C748.258,185.98,753.579,153.343,739.077,125.643C723.535,95.957,693.598,72.99,660.149,74.978C629.013,76.829,611.81,107.29,595.956,134.151C579.695,161.701,559.384,192.494,573.987,220.958C589.365,250.934,626.503,260.989,660.149,259.278" fill="rgba(28, 83, 142, 0.4)" class="triangle-float3"></path><path d="M361.74 385.18 a123.73 123.73 0 1 0 247.46 0 a123.73 123.73 0 1 0 -247.46 0z" fill="rgba(28, 83, 142, 0.4)" class="triangle-float2"></path><path d="M873.059,490.251C901.169,490.811,928.672,480.407,944.449,457.135C962.441,430.595,971.271,396.231,955.858,368.114C939.975,339.14,906.101,327.043,873.059,326.904C839.737,326.764,804.479,337.879,789.044,367.411C774.366,395.494,788.539,428.231,806.428,454.387C821.69,476.701,846.03,489.713,873.059,490.251" fill="rgba(28, 83, 142, 0.4)" class="triangle-float1"></path><path d="M145.032,507.286C196.345,508.923,244.489,481.897,270.833,437.832C297.888,392.578,304.623,333.754,274.753,290.306C247.534,250.715,193.052,253.283,145.032,254.846C100.842,256.285,53.05,261.099,29.159,298.301C3.683,337.971,9.542,388.994,32.403,430.226C56.045,472.865,96.302,505.732,145.032,507.286" fill="rgba(28, 83, 142, 0.4)" class="triangle-float2"></path></g><defs><mask id="SvgjsMask1020"><rect width="1440" height="560" fill="#ffffff"></rect></mask><style>
                @keyframes float1 {
                    0%{transform: translate(0, 0)}
                    50%{transform: translate(-10px, 0)}
                    100%{transform: translate(0, 0)}
                }

                .triangle-float1 {
                    animation: float1 5s infinite;
                }

                @keyframes float2 {
                    0%{transform: translate(0, 0)}
                    50%{transform: translate(-5px, -5px)}
                    100%{transform: translate(0, 0)}
                }

                .triangle-float2 {
                    animation: float2 4s infinite;
                }

                @keyframes float3 {
                    0%{transform: translate(0, 0)}
                    50%{transform: translate(0, -10px)}
                    100%{transform: translate(0, 0)}
                }

                .triangle-float3 {
                    animation: float3 6s infinite;
                }
            </style></defs></svg>